<svg width="20" height="20" viewBox="0 0 20 20" fill="none" xmlns="http://www.w3.org/2000/svg">
<path d="M7.5 5.62301V14.1667C7.5 14.627 7.1269 15.0001 6.66667 15.0001C6.20643 15.0001 5.83333 14.627 5.83333 14.1667L5.83333 5.62301L3.92259 7.53375C3.59715 7.85919 3.06951 7.85919 2.74408 7.53375C2.41864 7.20832 2.41864 6.68068 2.74408 6.35524L6.07741 3.02191C6.40285 2.69647 6.93049 2.69647 7.25592 3.02191L10.5893 6.35524C10.9147 6.68068 10.9147 7.20832 10.5893 7.53375C10.2638 7.85919 9.73618 7.85919 9.41074 7.53375L7.5 5.62301Z" fill="#4A4A4A"/>
<path d="M14.1667 5.83339C14.1667 5.37315 13.7936 5.00005 13.3333 5.00005C12.8731 5.00005 12.5 5.37315 12.5 5.83339V14.3771L10.5893 12.4664C10.2638 12.1409 9.73618 12.1409 9.41075 12.4664C9.08531 12.7918 9.08531 13.3194 9.41075 13.6449L12.7441 16.9782C13.0695 17.3036 13.5972 17.3036 13.9226 16.9782L17.2559 13.6449C17.5814 13.3194 17.5814 12.7918 17.2559 12.4664C16.9305 12.1409 16.4028 12.1409 16.0774 12.4664L14.1667 14.3771V5.83339Z" fill="#4A4A4A"/>
</svg>
