<svg width="25" height="24" viewBox="0 0 25 24" fill="none" xmlns="http://www.w3.org/2000/svg">
<g id="Huge-icon/social/outline/twitter ">
<path id="Vector" d="M15.786 4C13.6821 4 11.9766 5.79086 11.9766 8C11.9766 8.33382 12.0156 8.65809 12.0889 8.96808C9.8 8.96808 6.2 8.44444 3.5 4.88889C3.5 13.7778 7.1 16.2963 8.9 16.4444C7.55 17.7778 5.4465 18.7647 3.5 18.9503C4.33744 19.7106 6.96043 19.9669 8.16725 20C14.4081 20 19.4805 14.7471 19.5934 8.22229C20.7903 7.44391 21.3588 5.33377 21.5 4.88889C20.9169 5.50119 19.7 5.77778 18.7303 5.46181C18.0317 4.56927 16.9721 4 15.786 4Z" stroke="#303030" stroke-width="1.5" stroke-linejoin="round"/>
</g>
</svg>
