<svg width="41" height="41" viewBox="0 0 41 41" fill="none" xmlns="http://www.w3.org/2000/svg">
<rect x="0.125" y="0.164062" width="40" height="40" rx="20" fill="#303030"/>
<path fill-rule="evenodd" clip-rule="evenodd" d="M16.7916 11.8306C14.0302 11.8306 11.7916 14.0691 11.7916 16.8306V23.4972C11.7916 26.2587 14.0302 28.4972 16.7916 28.4972H23.4583C26.2197 28.4972 28.4583 26.2587 28.4583 23.4972V16.8306C28.4583 14.0691 26.2197 11.8306 23.4583 11.8306H16.7916ZM25.125 15.9972C25.5852 15.9972 25.9583 15.6241 25.9583 15.1639C25.9583 14.7037 25.5852 14.3306 25.125 14.3306C24.6647 14.3306 24.2916 14.7037 24.2916 15.1639C24.2916 15.6241 24.6647 15.9972 25.125 15.9972ZM24.2916 20.1639C24.2916 22.4651 22.4261 24.3306 20.125 24.3306C17.8238 24.3306 15.9583 22.4651 15.9583 20.1639C15.9583 17.8627 17.8238 15.9972 20.125 15.9972C22.4261 15.9972 24.2916 17.8627 24.2916 20.1639ZM20.125 22.6639C21.5057 22.6639 22.625 21.5446 22.625 20.1639C22.625 18.7832 21.5057 17.6639 20.125 17.6639C18.7442 17.6639 17.625 18.7832 17.625 20.1639C17.625 21.5446 18.7442 22.6639 20.125 22.6639Z" fill="white"/>
</svg>
