<svg width="41" height="41" viewBox="0 0 41 41" fill="none" xmlns="http://www.w3.org/2000/svg">
<rect x="0.125" y="0.164062" width="40" height="40" rx="20" fill="#303030"/>
<path fill-rule="evenodd" clip-rule="evenodd" d="M15.125 13.4972C15.125 14.4177 14.3788 15.1639 13.4583 15.1639C12.5378 15.1639 11.7916 14.4177 11.7916 13.4972C11.7916 12.5768 12.5378 11.8306 13.4583 11.8306C14.3788 11.8306 15.125 12.5768 15.125 13.4972ZM15.125 17.2472V28.4972H11.7916V17.2472H15.125ZM17.625 17.2472H20.9583V17.9484C21.4796 17.7642 22.0406 17.6639 22.625 17.6639C25.3864 17.6639 27.625 19.9025 27.625 22.6639V28.4972H24.2916V22.6639C24.2916 21.7434 23.5454 20.9972 22.625 20.9972C21.7045 20.9972 20.9583 21.7434 20.9583 22.6639V28.4972H17.625V22.6639V17.2472Z" fill="white"/>
</svg>
